
<svg width="157px" height="19px" viewBox="0 0 157 19" version="1.1" xmlns="http://www.w3.org/2000/svg" xmlns:xlink="http://www.w3.org/1999/xlink">
    <!-- Generator: Sketch 45.1 (43504) - http://www.bohemiancoding.com/sketch -->
    <desc>Created with Sketch.</desc>
    <defs>
        <polygon id="path-1" points="1.05046423e-20 0.367787699 1.05046423e-20 11.7664935 9.7816801 11.7664935 9.7816801 0.367787699 0 0.367787699"></polygon>
        <polygon id="path-3" points="0.581251835 0.209278564 7.78275977 0.209278564 7.78275977 14.0920434 0.581251835 14.0920434 0.581251835 0.209278564"></polygon>
        <polygon id="path-5" points="2.81285893 2.99981444 2.81285893 0.108669832 0.100918774 0.108669832 0.100918774 2.99981444 2.81285893 2.99981444"></polygon>
    </defs>
    <g id="Symbols" stroke="none" stroke-width="1" fill="none" fill-rule="evenodd">
        <g id="Topbar" transform="translate(-100.000000, -37.000000)">
            <g id="Logo-Dark" transform="translate(100.000000, 37.000000)">
                <g id="Page-1" stroke-width="1" transform="translate(42.284342, 0.397461)">
                    <g id="Group-3" transform="translate(0.000000, 2.891145)">
                        <mask id="mask-2" fill="white">
                            <use xlink:href="#path-1"></use>
                        </mask>
                        <g id="Clip-2"></g>
                        <path d="M7.2401082,5.02772373 C7.2401082,3.77592788 6.98974903,2.40941636 4.89076254,2.40941636 C2.84990898,2.40941636 2.54141688,3.79530552 2.54141688,5.02772373 L2.54141688,5.20134743 L7.2401082,5.20134743 L7.2401082,5.02772373 Z M2.52281434,6.85697341 L2.52281434,7.04919965 C2.52281434,8.62809015 2.75379587,9.64890448 5.41085853,9.64890448 C6.54638852,9.64890448 7.8950726,9.53341372 9.31971705,9.39854531 L9.31971705,11.3045305 C8.51128171,11.4975318 7.10523979,11.7664935 5.29536777,11.7664935 C1.38650924,11.7664935 -0.000155021159,10.2651136 -0.000155021159,6.45236818 L-0.000155021159,5.77880125 C-0.000155021159,2.13967955 1.65624606,0.367787699 4.89076254,0.367787699 C8.51128171,0.367787699 9.7816801,2.71713336 9.7816801,6.00978278 L9.7816801,6.85697341 L2.52281434,6.85697341 Z" id="Fill-1" fill="#313A44" mask="url(#mask-2)"></path>
                    </g>
                    <path d="M17.2339348,14.3686787 L13.6327932,14.3686787 L10.2641835,3.52882415 L12.9212461,3.52882415 L14.6923629,9.70951775 C14.9814773,10.7303321 15.2124589,11.7309937 15.462818,12.6556949 C15.6937995,11.7309937 15.9054034,10.7497097 16.1937428,9.70951775 L17.946257,3.52882415 L20.6040948,3.52882415 L17.2339348,14.3686787 Z" id="Fill-4" fill="#313A44"></path>
                    <path d="M28.2686509,7.91886835 C28.2686509,6.66707249 28.0182917,5.30056097 25.9193052,5.30056097 C23.8784517,5.30056097 23.5699596,6.68645013 23.5699596,7.91886835 L23.5699596,8.09249205 L28.2686509,8.09249205 L28.2686509,7.91886835 Z M23.551357,9.74811802 L23.551357,9.94034426 C23.551357,11.5192348 23.7823386,12.5400491 26.4394012,12.5400491 C27.5749312,12.5400491 28.9236153,12.4245583 30.3482597,12.2896899 L30.3482597,14.1956751 C29.5398244,14.3886764 28.1337825,14.6576381 26.3239105,14.6576381 C22.4150519,14.6576381 21.0283877,13.1562582 21.0283877,9.3435128 L21.0283877,8.66994586 C21.0283877,5.03082416 22.6847887,3.25893231 25.9193052,3.25893231 C29.5398244,3.25893231 30.8102228,5.60827797 30.8102228,8.90092739 L30.8102228,9.74811802 L23.551357,9.74811802 Z" id="Fill-6" fill="#313A44"></path>
                    <path d="M39.6492192,14.3686787 L39.6492192,7.4950405 C39.6492192,5.93552764 39.3787073,5.39605401 38.1276866,5.39605401 C37.3959867,5.39605401 36.4333053,5.66579082 35.2776225,6.12852898 L35.2776225,14.3686787 L32.7554283,14.3686787 L32.7554283,3.52882415 L35.1815094,3.52882415 L35.1815094,4.39539243 C36.3565698,3.72105039 37.5308551,3.25908733 38.7438957,3.25908733 C41.8055635,3.25908733 42.2101688,5.03097918 42.2101688,7.4950405 L42.2101688,14.3686787 L39.6492192,14.3686787 Z" id="Fill-8" fill="#313A44"></path>
                    <g id="Group-12" transform="translate(42.630819, 0.565827)">
                        <mask id="mask-4" fill="white">
                            <use xlink:href="#path-3"></use>
                        </mask>
                        <g id="Clip-11"></g>
                        <path d="M5.58766016,14.0920434 C3.44991838,14.0920434 2.60272775,13.2448528 2.60272775,10.9730177 L2.60272775,5.00392799 L0.581251835,4.83030429 L0.581251835,2.96307443 L2.60272775,2.96307443 L2.60272775,0.209123543 L5.14507475,0.209123543 L5.14507475,2.96307443 L7.78275977,2.96307443 L7.78275977,5.00392799 L5.14507475,5.00392799 L5.14507475,10.9342624 C5.14507475,11.9356991 5.22103512,12.1279253 6.14651144,12.1279253 C6.7038125,12.1279253 7.47504277,12.0899452 7.78275977,12.0511899 L7.78275977,13.7843264 C7.49364531,13.8610619 6.55034156,14.0920434 5.58766016,14.0920434" id="Fill-10" fill="#313A44" mask="url(#mask-4)"></path>
                    </g>
                    <path d="M55.0347592,14.6192704 C53.6294924,14.6192704 52.1846952,14.3689112 51.684752,14.2340428 L51.684752,13.2519838 C52.3389412,13.3294943 53.7449832,13.5403231 54.9960039,13.5403231 C56.960122,13.5403231 57.5763311,12.8675313 57.5763311,11.8087368 C57.5763311,10.7685448 57.114368,10.3639396 55.2269854,9.59425952 L54.4759079,9.30514506 C52.4738097,8.49670972 51.5498835,7.66889673 51.5498835,6.18611934 C51.5498835,4.45298279 52.762149,3.64454744 55.2851184,3.64454744 C56.5748944,3.64454744 57.8460679,3.85615133 58.3460112,4.00962227 L58.3460112,4.97307878 C57.3647272,4.83821037 56.1509115,4.74132214 55.3424762,4.74132214 C53.6101148,4.74132214 52.8210571,5.04981425 52.8210571,6.18611934 C52.8210571,7.16817839 53.3597556,7.59138615 54.9774014,8.24635055 L55.7284789,8.55406755 C58.0576718,9.53612659 58.828127,10.2104686 58.828127,11.7893591 C58.828127,13.2713614 57.9809363,14.6192704 55.0347592,14.6192704" id="Fill-13" fill="#313A44"></path>
                    <path d="M67.2426755,4.85735548 C66.5109756,4.79922255 65.4901613,4.76046726 64.9514627,4.76046726 C62.6408724,4.76046726 61.5813027,5.39605401 61.5813027,8.82357183 L61.5813027,9.59402699 C61.5813027,12.5595818 62.3331554,13.5028855 64.3352536,13.5028855 C64.9708404,13.5028855 66.0676151,13.3866196 67.2426755,12.9246566 L67.2426755,4.85735548 Z M67.2426755,18.393028 L67.2426755,13.9648486 C66.1838809,14.4461893 65.0289733,14.6190379 64.1430274,14.6190379 C61.5239449,14.6190379 60.330282,13.2905065 60.330282,9.59402699 L60.330282,8.82357183 C60.330282,4.7798449 61.7936817,3.64431491 64.9708404,3.64431491 C65.9916547,3.64431491 66.8574479,3.6822951 68.4944713,3.89467408 L68.4944713,18.393028 L67.2426755,18.393028 Z" id="Fill-15" fill="#313A44"></path>
                    <path d="M78.0071122,14.3686787 L78.0071122,13.521488 C76.7359387,14.1764524 75.5422758,14.6190379 74.291255,14.6190379 C71.7303055,14.6190379 71.1140964,13.0215448 71.1140964,10.5373307 L71.1140964,3.91405173 L72.3465146,3.91405173 L72.3465146,10.5373307 C72.3465146,12.7704105 72.8472329,13.5408657 74.5222365,13.5408657 C75.5624285,13.5408657 76.7173362,13.1362605 78.0071122,12.5208265 L78.0071122,3.91405173 L79.2589081,3.91405173 L79.2589081,14.3686787 L78.0071122,14.3686787 Z" id="Fill-17" fill="#313A44"></path>
                    <path d="M87.944201,9.11253127 L86.1723092,9.11253127 C83.6501149,9.11253127 82.6486782,9.45900356 82.6486782,11.3270085 L82.6486782,11.6928585 C82.6486782,13.1361054 83.4578887,13.6375989 84.7662673,13.6375989 C86.076196,13.6375989 87.3659721,13.05937 87.944201,12.6942951 L87.944201,9.11253127 Z M88.0015588,14.3685237 L88.0015588,13.6174461 C87.269859,14.0608067 86.076196,14.6188828 84.5166832,14.6188828 C82.4750545,14.6188828 81.3976575,13.6949567 81.3976575,11.6153479 L81.3976575,11.3270085 C81.3976575,8.66994586 83.1114164,8.13047223 86.1723092,8.13047223 L87.944201,8.13047223 L87.944201,7.24452631 C87.944201,5.20444786 87.5008405,4.72233205 85.1708725,4.72233205 C84.1500582,4.72233205 83.284265,4.79984263 82.1099797,4.93393593 L82.1099797,4.01000983 C83.0912636,3.83638613 83.9198517,3.64415989 85.2677607,3.64415989 C88.5983903,3.64415989 89.2145994,4.78046499 89.2145994,7.24452631 L89.2145994,14.3685237 L88.0015588,14.3685237 Z" id="Fill-19" fill="#313A44"></path>
                    <path d="M92.9892096,5.74299136 L92.9892096,14.3683686 L91.7567914,14.3683686 L91.7567914,3.91374169 L92.9892096,3.91374169 L92.9892096,4.76093232 C94.2216278,3.8749864 95.7044052,3.64400487 96.9166707,3.64400487 L96.9166707,4.78030997 C95.761763,4.78030997 94.1441172,5.04927168 92.9892096,5.74299136" id="Fill-21" fill="#313A44"></path>
                    <path d="M104.620292,8.34230864 C104.620292,6.47430368 104.100196,4.74116712 101.578002,4.74116712 C99.03643,4.74116712 98.516334,6.53243661 98.516334,8.34230864 L98.4977315,8.51593234 L104.620292,8.51593234 L104.620292,8.34230864 Z M98.4977315,9.57472686 L98.4977315,9.80570838 C98.4977315,12.1930342 99.1511457,13.5215656 102.00121,13.5215656 C103.156117,13.5215656 104.620292,13.3866972 105.582198,13.2324511 L105.582198,14.2338878 C104.831121,14.4075115 103.522742,14.6191154 101.962454,14.6191154 C98.4008432,14.6191154 97.2451605,13.0216223 97.2451605,9.53597157 L97.2451605,8.8042717 C97.2451605,5.53099993 98.5736918,3.64439242 101.578002,3.64439242 C104.600914,3.64439242 105.928671,5.49301974 105.928671,8.9391401 L105.928671,9.57472686 L98.4977315,9.57472686 Z" id="Fill-23" fill="#313A44"></path>
                    <polygon id="Fill-25" fill="#313A44" points="110.437384 4.22649688 110.437384 6.66575481 109.892484 6.66575481 109.892484 4.22649688 109.029016 4.22649688 109.029016 3.7746102 111.300851 3.7746102 111.300851 4.22649688"></polygon>
                    <g id="Group-29" transform="translate(111.615234, 3.666250)">
                        <mask id="mask-6" fill="white">
                            <use xlink:href="#path-5"></use>
                        </mask>
                        <g id="Clip-28"></g>
                        <path d="M2.28361669,2.99981444 L2.28361669,1.39689566 C2.28361669,1.21397069 2.29136775,1.0814276 2.30221923,0.898502637 L2.29524328,0.898502637 C2.23323481,1.04267231 2.16270019,1.17133988 2.09681619,1.29923233 L1.6689578,2.11231831 L1.23644876,2.11231831 L0.816341423,1.29923233 C0.749682324,1.17521541 0.69154939,1.03492126 0.621789868,0.898502637 L0.61403881,0.898502637 C0.621789868,1.0814276 0.629540926,1.21009517 0.629540926,1.39689566 L0.629540926,2.99981444 L0.100918774,2.99981444 L0.100918774,0.108669832 L0.69154939,0.108669832 L1.27132852,1.2410994 C1.33023656,1.35348974 1.39302013,1.48603283 1.44727754,1.60694933 L1.4550286,1.60694933 C1.509286,1.4821573 1.57129447,1.35038931 1.63330293,1.23334834 L2.22160823,0.108669832 L2.81301395,0.108669832 L2.81301395,2.99981444 L2.28361669,2.99981444 Z" id="Fill-27" fill="#313A44" mask="url(#mask-6)"></path>
                    </g>
                </g>
                <polygon id="Page-1" fill="#313A44" points="32.6510312 -0.000245909406 0 7.6508154 8.06009062 12.0230846 27.5967732 3.00558673 9.15356778 13.661661 9.83637623 18.0339302 15.0275238 15.0280976 22.1318465 18.1700001"></polygon>
            </g>
        </g>
    </g>
</svg>